<svg xmlns="http://www.w3.org/2000/svg" viewBox="0 0 1135.2 1091.4" role="img" aria-label="DropSauce dark mode app icon">
  <circle cx="567.6" cy="545.7" r="520" fill="#1a1a1a"/>
  <g transform="translate(340.56 327.42) scale(0.4)">
    <path d="M0,6.39L534.14,0l194.54,369.82-201.29,361.61-517.27,5.48L0,6.39ZM448.67,355.21l-170.92-180.8-21.37,366.17 192.29-185.37Z" fill="#64d2ff"/>
    <path d="M518.66,1091.38l-27.45-283.16 208.18-8.17 22.88,106.19 83.5-4.54 9.15-88.94-317.99-83.5 29.74-357.59 568.5-11.8 40.04,313.11-209.33,11.8-35.46-132.51h-77.78l-6.86,120.71 316.85,84.41-27.45,331.27-576.51,2.72Z" fill="#64d2ff"/>
    <path d="M8.83,768.55L450.45,755.28 486.46,1091.37 8.2,1075.59 8.83,768.55Z" fill="#64d2ff"/>
    <path d="M586.74,0.01L727.19,326.4 1092.77,337.56 1112.46,0.21 586.74,0.01Z" fill="#64d2ff"/>
  </g>
</svg>
